<?xml version="1.0" encoding="utf-8"?><!-- Uploaded to: SVG Repo, www.svgrepo.com, Generator: SVG Repo Mixer Tools -->
<svg width="800px" height="800px" viewBox="0 0 24 24" fill="none" xmlns="http://www.w3.org/2000/svg">
<path d="M21.0098 9C21.6589 9.86548 22.0098 10.9181 22.0098 12C22.0098 13.0819 21.6589 14.1345 21.0098 15" stroke="#000000" stroke-width="1.5" stroke-linecap="round" stroke-linejoin="round"/>
<path d="M2 9V15C1.99992 16.0523 2.41447 17.0623 3.15384 17.811C3.8932 18.5598 4.8978 18.9868 5.94998 19H14.05C15.1109 19 16.1283 18.5788 16.8784 17.8286C17.6286 17.0785 18.05 16.0609 18.05 15V9C18.05 7.93913 17.6286 6.92178 16.8784 6.17163C16.1283 5.42149 15.1109 5 14.05 5H5.95999C4.90956 5.01576 3.90748 5.44418 3.17026 6.19263C2.43304 6.94107 2.01987 7.94945 2.01999 9H2Z" stroke="#000000" stroke-width="1.5" stroke-linecap="round" stroke-linejoin="round"/>
<path d="M5.9502 8.01001C6.79111 10.6104 6.79111 13.4096 5.9502 16.01" stroke="#000000" stroke-width="1.5" stroke-linecap="round" stroke-linejoin="round"/>
</svg>