<?xml version="1.0" encoding="utf-8"?><!-- Uploaded to: SVG Repo, www.svgrepo.com, Generator: SVG Repo Mixer Tools -->
<svg width="800px" height="800px" viewBox="-0.5 0 25 25" fill="none" xmlns="http://www.w3.org/2000/svg">
<path d="M16.4902 3.91998H7.49023C6.36389 3.85707 5.2584 4.24253 4.41525 4.992C3.5721 5.74147 3.05981 6.79403 2.99023 7.91998V17.92C3.05981 19.0459 3.5721 20.0985 4.41525 20.848C5.2584 21.5974 6.36389 21.9829 7.49023 21.92H16.4902C17.6166 21.9829 18.722 21.5974 19.5652 20.848C20.4083 20.0985 20.9207 19.0459 20.9902 17.92V7.91998C20.9207 6.79403 20.4083 5.74147 19.5652 4.992C18.722 4.24253 17.6166 3.85707 16.4902 3.91998Z" stroke="#000000" stroke-width="1.5" stroke-linecap="round" stroke-linejoin="round"/>
<path d="M17.6109 10C15.881 9.0841 13.9533 8.60522 11.9958 8.60522C10.0384 8.60522 8.11076 9.0841 6.38086 10" stroke="#000000" stroke-width="1.5" stroke-linecap="round" stroke-linejoin="round"/>
<path d="M14.1599 17.24C13.516 16.8241 12.7663 16.6018 11.9998 16.5999C11.2334 16.6018 10.4837 16.8241 9.83984 17.24" stroke="#000000" stroke-width="1.5" stroke-linecap="round" stroke-linejoin="round"/>
<path d="M15.8894 13.6099C14.6997 12.9479 13.3608 12.6006 11.9994 12.6006C10.6379 12.6006 9.29902 12.9479 8.10938 13.6099" stroke="#000000" stroke-width="1.5" stroke-linecap="round" stroke-linejoin="round"/>
</svg>