<?xml version="1.0" encoding="UTF-8"?>
<!-- Generated by Pixelmator Pro 3.7 -->
<svg width="230" height="236" viewBox="0 0 230 236" xmlns="http://www.w3.org/2000/svg">
    <path id="Shape" fill="#000000" fill-rule="evenodd" stroke="none" d="M 100.227921 236 C 99.803276 236 95.761383 232.286255 91.245934 227.747223 C 83.036018 219.494431 83.036018 219.494431 82.768013 194.497223 C 82.5 169.5 82.5 169.5 80 169.217026 C 77.9646 168.986633 75.086754 171.35611 64.514427 181.967026 C 51.528854 195 51.528854 195 40.764427 195 C 34.220142 195 30 194.606049 30 193.995148 C 30 193.442474 41.49437 181.495911 55.543053 167.447235 C 69.591728 153.39856 81.643372 141.690338 82.324478 141.428986 C 83.005585 141.167618 85.123718 142.588242 87.031425 144.585922 C 88.93914 146.583603 92.115639 149.254288 94.090302 150.520767 C 96.064972 151.787262 98.427475 153.570328 99.340302 154.483154 C 100.831146 155.973999 101 160.205185 101 196.071426 C 101 218.032135 100.652565 236 100.227921 236 Z M 109.5 157.5 C 122.675003 156.449524 128.074997 155.862061 130 155.516785 C 133.479095 154.892761 133.667267 155.056641 161.5 182.950073 C 176.899994 198.383682 189.649994 211.458649 189.833328 212.005585 C 190.041885 212.627762 185.712555 213 178.267548 213 C 166.368439 213 166.368439 213 157.101913 203.25 C 152.005325 197.887497 146.01358 191.646393 143.786926 189.38089 C 141.560272 187.115372 139.009811 184.602097 138.119232 183.795837 C 137.228653 182.989563 135.837036 181.354111 135.026733 180.161469 C 134.216446 178.968842 132.675735 177.714478 131.602936 177.373978 C 130.336182 176.971924 129.187469 177.390717 128.326202 178.568573 C 127.330505 179.930267 127 185.308105 127 200.147888 C 127 219.913513 127 219.913513 119.042786 227.956757 C 114.666306 232.380539 110.611084 236 110.031174 236 C 109.30545 236 109.058334 223.765121 109.238388 196.75 Z M 195.75 203.918274 C 195.0625 203.873337 182.65213 191.915039 168.171417 177.344269 C 153.690689 162.773529 142.05867 150.322784 142.322495 149.675995 C 142.586319 149.029205 144.683777 146.699997 146.983505 144.5 C 149.283249 142.300003 151.86554 139.149994 152.721954 137.5 C 153.578369 135.850006 154.778778 134.169388 155.389526 133.76532 C 156.00029 133.361237 173.037506 133.023727 193.25 133.01532 C 218.098221 133.004959 230 133.337708 230 134.042786 C 230 134.616302 226.380539 138.666306 221.956757 143.042786 C 213.913513 151 213.913513 151 191.925369 151 C 173.034805 151 169.853851 151.21727 169.345398 152.542297 C 168.95752 153.55307 171.069534 156.568665 175.473587 161.292297 C 179.169601 165.256531 182.487549 168.796417 182.846802 169.158722 C 183.206055 169.520996 186.425003 172.526062 190 175.836609 C 194.362579 179.876495 196.884354 183.101913 197.668839 185.645294 C 198.410049 188.048401 198.501511 190.062897 197.918839 191.151657 C 197.413483 192.095932 197 195.373108 197 198.434265 C 197 202.263763 196.610062 203.974518 195.75 203.918274 Z M 21.75658 188 C 21.340462 188 21 182.603363 21 176.007462 C 21 164.014923 21 164.014923 37.72768 147.287247 C 50.45784 134.557083 54.460693 129.955002 54.477676 128.029785 C 54.5 125.5 54.5 125.5 33.981529 125 C 13.463062 124.5 13.463062 124.5 6.731531 117.699234 C 3.029188 113.958817 0 110.471313 0 109.949234 C 0 109.366928 14.666435 109 37.940983 109 C 58.808525 109 76.119324 109.384064 76.409431 109.853455 C 76.699539 110.322861 76.777336 115.542145 77 119 C 77.255692 122.97081 77.547112 126.845444 78.065254 128.489853 C 78.990295 131.425598 78.496063 131.991241 50.760254 159.739868 C 35.22435 175.282928 22.172699 188 21.75658 188 Z M 215.5 109.054962 C 226.737503 119.78804 230 123.375687 230 123.952057 C 230 124.671005 211.157013 125 169.978561 125 C 109.957123 125 109.957123 125 109.006668 122.75 C 108.483917 121.512497 108.290833 119.603394 108.189362 118 C 108.034042 115.545502 107.527328 111.615524 108.513916 110.628937 C 109.978653 109.1642 115.452957 109.002777 162.821426 109.027481 Z M 56.095009 100.98468 C 43.880157 100.976028 -0.207718 100.609146 0 100 C 0.183334 99.462372 3.637932 93.884857 7.473179 90.022491 C 14.446362 83 14.446362 83 40.836678 83 C 67.226997 83 67.226997 83 66.814919 80.192337 C 66.521782 78.195068 62.448051 73.429871 52.701424 63.683243 C 39 49.981812 39 49.981812 39 38.907578 C 39 32.012512 39.375107 27.959122 39.993988 28.166672 C 40.54068 28.350006 52.695023 40.199997 67.003647 54.5 C 82.482651 69.969681 92.813728 81.037216 92.511711 81.826416 C 92.232536 82.555954 90.290558 84.805954 88.196205 86.826416 C 86.101852 88.846893 83.51841 92.074997 82.455208 94 C 81.392014 95.925003 79.884903 98.287506 79.106071 99.25 C 77.835808 100.819839 75.46682 100.998428 56.095009 100.98468 Z M 151 16.086487 C 151 81.989227 150.72905 89.980804 149.75 89.911423 C 149.0625 89.862717 147.375 88.59613 146 87.096817 C 144.625 85.597504 141.137497 82.861572 138.25 81.016983 C 133 77.663177 133 77.663177 133 38.831589 C 133 12.548492 133.336975 0 134.042786 0 C 134.616302 0 138.666306 3.619446 143.042786 8.043243 Z M 124.5 74.5 C 112.875 75.6035 107.453812 76.204041 104.952927 76.546494 C 100.405853 77.169113 100.405853 77.169113 85.952927 62.57872 C 78.003815 54.554001 69.925003 46.204895 68 44.025131 C 66.074997 41.845383 60.787498 36.229431 56.25 31.545258 C 51.712502 26.861084 48 22.572144 48 22.014282 C 48 21.391235 52.161865 21 58.78952 21 C 69.579048 21 69.579048 21 86.03952 37.75 C 95.898933 47.782822 103.402313 54.626892 104.75 54.816422 C 107 55.132843 107 55.132843 107 35.794342 C 107 16.455841 107 16.455841 115.469299 8.030548 C 120.127411 3.396637 124.183014 -0.15033 124.481766 0.148438 C 124.780518 0.447205 124.906845 17.298508 124.762482 37.59581 Z"/>
</svg>
